<?xml version="1.0" standalone="no"?>
<!DOCTYPE svg PUBLIC "-//W3C//DTD SVG 20010904//EN"
 "http://www.w3.org/TR/2001/REC-SVG-20010904/DTD/svg10.dtd">
<svg version="1.0" xmlns="http://www.w3.org/2000/svg"
 width="853.000000pt" height="1280.000000pt" viewBox="0 0 853.000000 1280.000000"
 preserveAspectRatio="xMidYMid meet">

<g transform="translate(0.000000,1280.000000) scale(0.100000,-0.100000)"
fill="#000000" stroke="none">
<path d="M4055 10179 c-583 -32 -1202 -222 -1691 -516 -270 -163 -474 -323
-705 -553 -674 -672 -1044 -1516 -1084 -2475 -7 -154 7 -481 25 -609 95 -658
302 -1180 668 -1691 303 -422 695 -774 1162 -1042 280 -161 633 -304 936 -378
319 -79 580 -110 914 -110 276 0 434 14 660 56 593 110 1120 349 1620 735 143
110 487 452 604 599 370 465 618 995 730 1555 51 253 69 443 70 735 0 343 -24
558 -99 870 -203 846 -675 1564 -1380 2095 -688 518 -1554 778 -2430 729z
m607 -655 c95 -14 194 -29 222 -35 27 -5 94 -12 148 -16 l98 -6 0 -379 0 -378
-52 0 -53 0 -3 62 c-7 129 -76 285 -170 381 -137 141 -320 211 -557 211 -349
1 -569 -154 -646 -452 -15 -61 -19 -110 -19 -259 l0 -183 -221 0 -222 0 7 103
c22 306 119 544 288 702 l53 50 -46 -50 c-76 -84 -100 -117 -95 -132 3 -8 1
-11 -4 -8 -5 3 -18 -11 -29 -32 l-19 -38 25 -1 c17 -2 23 2 19 13 -3 8 -2 12
2 10 4 -2 15 4 25 15 10 10 12 18 5 18 -6 0 -9 3 -5 6 3 3 11 3 17 -1 8 -5 8
-11 -1 -21 -8 -10 -8 -14 -1 -14 6 0 16 9 22 20 8 16 15 18 29 11 12 -7 22 -6
31 2 12 10 12 9 1 -5 -12 -16 -10 -18 15 -17 16 0 23 3 17 6 -21 8 -16 33 5
26 15 -6 15 -5 3 10 -12 15 -12 17 2 11 12 -4 20 2 27 20 5 14 12 26 15 26 4
0 3 -5 -1 -12 -4 -7 -3 -8 5 -4 6 4 9 11 6 16 -3 4 -2 16 1 25 5 13 8 14 15 3
6 -10 11 -10 20 -1 10 10 7 14 -12 22 l-24 10 23 0 c13 1 21 5 18 10 -12 18 7
43 28 39 18 -4 22 0 21 19 0 13 -7 28 -15 33 -13 8 -12 10 3 10 9 0 17 8 18
18 0 14 2 14 9 -3 6 -15 9 -16 9 -4 1 23 -10 30 -27 16 -13 -9 -14 -9 -8 1 11
18 0 15 -52 -14 -39 -22 -43 -22 -22 -5 36 31 124 75 212 105 205 70 534 86
840 40z m-1082 -168 c0 -2 -8 -10 -17 -17 -16 -13 -17 -12 -4 4 13 16 21 21
21 13z m2842 -1373 l4 -343 -42 0 c-42 0 -43 1 -49 38 -25 154 -60 234 -140
320 -60 65 -122 103 -211 129 -53 15 -129 17 -726 21 l-668 3 -2 -321 -3 -320
-222 177 -223 178 0 138 0 138 -712 -4 c-772 -4 -765 -3 -925 -61 -216 -79
-383 -264 -445 -495 -15 -56 -21 -107 -21 -196 -1 -110 2 -128 31 -214 18 -52
30 -97 26 -100 -12 -11 -96 93 -131 163 -38 76 -73 218 -73 302 0 86 29 224
65 306 118 272 361 441 687 477 64 7 484 10 1259 7 640 -1 1466 0 1834 3 369
3 673 4 676 1 4 -3 9 -159 11 -347z m-2509 -116 c178 -148 405 -331 562 -452
503 -387 747 -623 922 -893 104 -158 180 -351 208 -527 19 -115 21 -348 5
-451 -72 -453 -329 -810 -758 -1052 -41 -23 -75 -42 -76 -42 -1 0 -1 67 0 150
l1 149 49 39 c251 200 394 530 394 911 0 174 -17 283 -65 428 -109 327 -284
527 -945 1078 -536 447 -782 672 -837 768 l-22 37 195 0 196 0 171 -143z m369
-909 c78 -68 181 -157 230 -198 l89 -75 -1 -1290 c-1 -970 1 -1304 10 -1345
17 -75 66 -165 109 -199 75 -59 121 -74 294 -96 44 -6 48 -9 43 -28 -3 -12 -6
-27 -6 -32 0 -7 -213 -11 -625 -14 -451 -2 -625 0 -625 8 0 6 13 11 30 11 23
0 28 3 23 17 -4 10 -2 14 4 10 6 -4 14 -1 17 5 4 7 4 3 2 -9 -5 -26 17 -31 38
-10 11 10 11 17 2 29 -9 12 -24 15 -66 12 -113 -9 -120 -12 -120 -46 0 -38
-12 -30 -16 11 -4 32 -8 31 123 46 68 9 159 53 205 101 48 51 76 115 88 205 6
46 8 636 7 1542 -1 807 -1 1467 1 1467 2 0 67 -55 144 -122z m-1302 -390
c-183 -273 -270 -555 -270 -875 0 -142 14 -239 51 -365 76 -255 209 -450 419
-612 191 -148 397 -217 693 -233 l117 -6 0 -92 0 -92 -77 4 c-101 6 -324 46
-437 79 -436 126 -744 448 -861 901 -70 269 -51 599 50 866 52 139 153 313
241 418 50 60 127 124 132 110 2 -6 -24 -52 -58 -103z m923 -2833 c4 -8 2 -17
-3 -20 -6 -4 -10 3 -10 14 0 25 6 27 13 6z m-113 -45 c0 -5 -7 -7 -15 -4 -8 4
-15 8 -15 10 0 2 7 4 15 4 8 0 15 -4 15 -10z"/>
<path d="M3720 9420 c0 -6 7 -10 15 -10 8 0 15 2 15 4 0 2 -7 6 -15 10 -8 3
-15 1 -15 -4z"/>
<path d="M3657 9293 c-10 -9 -9 -23 2 -23 5 0 11 7 15 15 5 15 -5 20 -17 8z"/>
<path d="M3470 9090 c0 -5 5 -10 10 -10 6 0 10 5 10 10 0 6 -4 10 -10 10 -5 0
-10 -4 -10 -10z"/>
<path d="M4394 8303 c10 -11 36 -12 36 -2 0 5 -10 9 -22 9 -12 0 -18 -3 -14
-7z"/>
<path d="M4453 8285 c0 -19 4 -24 20 -21 12 1 23 8 25 14 5 17 29 15 36 -3 3
-8 10 -15 16 -15 6 0 8 5 5 10 -3 6 -1 10 5 10 6 0 8 5 5 10 -3 6 2 10 12 9
27 -1 55 -14 53 -24 -1 -5 4 -11 11 -14 8 -2 10 2 6 13 -4 10 -7 22 -7 27 0 5
-20 9 -45 9 -29 0 -45 -4 -45 -12 0 -8 -3 -9 -8 -3 -4 6 -26 11 -48 13 -38 2
-41 0 -41 -23z m37 -1 c0 -8 -4 -12 -10 -9 -5 3 -10 10 -10 16 0 5 5 9 10 9 6
0 10 -7 10 -16z"/>
<path d="M4660 8299 c0 -5 4 -8 9 -5 5 4 21 2 36 -4 20 -8 31 -7 41 1 8 7 12
14 9 17 -2 3 -11 -1 -20 -8 -10 -8 -15 -9 -15 -1 0 6 -13 11 -30 11 -16 0 -30
-5 -30 -11z"/>
<path d="M4425 8270 c-3 -5 -1 -10 4 -10 6 0 11 5 11 10 0 6 -2 10 -4 10 -3 0
-8 -4 -11 -10z"/>
<path d="M4506 8263 c-6 -14 -5 -15 5 -6 7 7 10 15 7 18 -3 3 -9 -2 -12 -12z"/>
<path d="M4580 8268 c0 -4 7 -8 15 -8 8 0 15 4 15 8 0 5 -7 9 -15 9 -8 0 -15
-4 -15 -9z"/>
<path d="M4690 8272 c0 -6 -8 -13 -17 -15 -16 -4 -16 -5 -1 -6 18 -1 34 16 24
26 -3 4 -6 1 -6 -5z"/>
<path d="M2603 5418 c3 -37 22 -37 22 0 0 16 -5 29 -12 29 -7 0 -11 -12 -10
-29z"/>
<path d="M2607 5359 c4 -13 8 -18 11 -10 2 7 -1 18 -6 23 -8 8 -9 4 -5 -13z"/>
</g>
</svg>
